<svg xmlns="http://www.w3.org/2000/svg" viewBox="0 0 24 24" fill="none" role="img" aria-hidden="true">
<defs>
  <linearGradient id="fg" x1="0%" y1="0%" x2="100%" y2="100%">
    <stop offset="0%" stop-color="#4F7FFF"/>
    <stop offset="33%" stop-color="#8B5CF6"/>
    <stop offset="66%" stop-color="#D946EF"/>
    <stop offset="100%" stop-color="#EC4899"/>
  </linearGradient>
  <linearGradient id="fgH" x1="0%" y1="0%" x2="100%" y2="0%">
    <stop offset="0%" stop-color="#4F7FFF"/>
    <stop offset="50%" stop-color="#8B5CF6"/>
    <stop offset="100%" stop-color="#EC4899"/>
  </linearGradient>
  <radialGradient id="rg" cx="50%" cy="50%" r="50%">
    <stop offset="0%" stop-color="#D946EF"/>
    <stop offset="100%" stop-color="#4F7FFF"/>
  </radialGradient>
</defs>
<path d="M23 19 C23 19.5 22.8 20 22.4 20.4 C22 20.8 21.5 21 21 21 L3 21 C2.5 21 2 20.8 1.6 20.4 C1.2 20 1 19.5 1 19 L1 8 C1 7.5 1.2 7 1.6 6.6 C2 6.2 2.5 6 3 6 L7 6 L9 3 L15 3 L17 6 L21 6 C21.5 6 22 6.2 22.4 6.6 C22.8 7 23 7.5 23 8 Z" stroke="url(#fg)" stroke-width="2" stroke-linejoin="round"/><circle cx="12" cy="13" r="4" stroke="url(#fg)" stroke-width="2"/>
</svg>