<svg xmlns="http://www.w3.org/2000/svg" viewBox="0 0 24 24" fill="none" role="img" aria-hidden="true">
<defs>
  <linearGradient id="fg" x1="0%" y1="0%" x2="100%" y2="100%">
    <stop offset="0%" stop-color="#4F7FFF"/>
    <stop offset="33%" stop-color="#8B5CF6"/>
    <stop offset="66%" stop-color="#D946EF"/>
    <stop offset="100%" stop-color="#EC4899"/>
  </linearGradient>
  <linearGradient id="fgH" x1="0%" y1="0%" x2="100%" y2="0%">
    <stop offset="0%" stop-color="#4F7FFF"/>
    <stop offset="50%" stop-color="#8B5CF6"/>
    <stop offset="100%" stop-color="#EC4899"/>
  </linearGradient>
  <radialGradient id="rg" cx="50%" cy="50%" r="50%">
    <stop offset="0%" stop-color="#D946EF"/>
    <stop offset="100%" stop-color="#4F7FFF"/>
  </radialGradient>
</defs>
<path d="M20 4 L4 4 C2.9 4 2 4.9 2 6 L2 18 C2 19.1 2.9 20 4 20 L20 20 C21.1 20 22 19.1 22 18 L22 6 C22 4.9 21.1 4 20 4Z" stroke="url(#fg)" stroke-width="2"/><path d="M16 12 C16 13.1 16.9 14 18 14 L22 14 L22 10 L18 10 C16.9 10 16 10.9 16 12Z" stroke="url(#fg)" stroke-width="1.5"/><circle cx="18" cy="12" r="1" fill="url(#fg)"/>
</svg>